<svg width="140" height="44" viewBox="0 0 140 44" fill="none" xmlns="http://www.w3.org/2000/svg">
<path d="M0 8.00001C0 3.58173 3.58172 0 8 0H131.029C135.447 0 139.029 3.58172 139.029 8V36C139.029 40.4183 135.447 44.0001 131.029 44.0001H8.00001C3.58173 44.0001 0 40.4183 0 36.0001V8.00001Z" fill="#2E3A59"/>
<path d="M29.1039 21.2584C29.1164 20.3256 29.3726 19.411 29.8489 18.5997C30.3251 17.7884 31.0059 17.1067 31.8278 16.6182C31.3057 15.8971 30.6168 15.3038 29.816 14.8852C29.0152 14.4666 28.1244 14.2343 27.2145 14.2068C25.2735 14.0098 23.3918 15.3298 22.4027 15.3298C21.3945 15.3298 19.8716 14.2263 18.2317 14.259C17.171 14.2921 16.1372 14.5903 15.2312 15.1246C14.3251 15.6589 13.5776 16.4109 13.0616 17.3076C10.8261 21.0497 12.4935 26.5493 14.6349 29.5742C15.7063 31.0554 16.9585 32.7099 18.5969 32.6512C20.2001 32.5869 20.7989 31.6627 22.7342 31.6627C24.6516 31.6627 25.2133 32.6512 26.885 32.6139C28.6054 32.5869 29.6893 31.1261 30.7231 29.6309C31.4929 28.5755 32.0852 27.4091 32.4782 26.1748C31.4787 25.7661 30.6258 25.0819 30.0257 24.2076C29.4257 23.3334 29.1051 22.3077 29.1039 21.2584Z" fill="white"/>
<path d="M25.9465 12.2174C26.8845 11.1287 27.3466 9.72928 27.2347 8.31641C25.8016 8.46194 24.4779 9.12417 23.5272 10.1711C23.0623 10.6826 22.7063 11.2777 22.4795 11.9222C22.2527 12.5668 22.1594 13.2483 22.2052 13.9278C22.922 13.9349 23.6311 13.7847 24.2792 13.4884C24.9272 13.1922 25.4973 12.7576 25.9465 12.2174Z" fill="white"/>
<path d="M49.3706 28.9014H43.8994L42.5855 32.6525H40.2681L45.4503 18.7744H47.858L53.0403 32.6525H50.6834L49.3706 28.9014ZM44.466 27.1705H48.8029L46.665 21.0827H46.6051L44.466 27.1705Z" fill="white"/>
<path d="M64.2323 27.5942C64.2323 30.7384 62.4917 32.7586 59.865 32.7586C59.1996 32.7922 58.5379 32.644 57.9555 32.331C57.3732 32.0179 56.8938 31.5526 56.5723 30.9883H56.5226V36H54.3745V22.5345H56.4538V24.2174H56.4933C56.8296 23.6559 57.3171 23.193 57.9038 22.878C58.4906 22.563 59.1547 22.4077 59.8255 22.4286C62.4815 22.4286 64.2323 24.4586 64.2323 27.5942ZM62.0244 27.5942C62.0244 25.5456 60.9294 24.1989 59.2588 24.1989C57.6176 24.1989 56.5136 25.574 56.5136 27.5942C56.5136 29.6329 57.6176 30.9982 59.2588 30.9982C60.9294 30.9982 62.0244 29.6612 62.0244 27.5942Z" fill="white"/>
<path d="M75.7508 27.5941C75.7508 30.7384 74.0102 32.7586 71.3835 32.7586C70.7181 32.7922 70.0564 32.644 69.4741 32.3309C68.8918 32.0179 68.4124 31.5526 68.0909 30.9883H68.0412V36H65.8931V22.5345H67.9723V24.2174H68.0118C68.3481 23.6559 68.8356 23.193 69.4223 22.878C70.0091 22.563 70.6732 22.4077 71.344 22.4286C74.0001 22.4286 75.7508 24.4586 75.7508 27.5941ZM73.5429 27.5941C73.5429 25.5456 72.448 24.1988 70.7774 24.1988C69.1361 24.1988 68.0321 25.574 68.0321 27.5941C68.0321 29.6328 69.1361 30.9982 70.7774 30.9982C72.448 30.9982 73.5429 29.6612 73.5429 27.5941H73.5429Z" fill="white"/>
<path d="M83.363 28.7857C83.5221 30.1619 84.9049 31.0655 86.7945 31.0655C88.6051 31.0655 89.9077 30.1619 89.9077 28.9209C89.9077 27.8437 89.1221 27.1988 87.2618 26.7567L85.4016 26.3234C82.7659 25.7079 81.5422 24.5161 81.5422 22.5822C81.5422 20.1877 83.7005 18.543 86.7652 18.543C89.7982 18.543 91.8774 20.1877 91.9474 22.5822H89.779C89.6492 21.1972 88.4651 20.3612 86.7346 20.3612C85.0042 20.3612 83.8201 21.207 83.8201 22.4381C83.8201 23.4193 84.5764 23.9966 86.4265 24.4386L88.0079 24.814C90.9529 25.4874 92.1765 26.6312 92.1765 28.6611C92.1765 31.2575 90.0375 32.8837 86.6353 32.8837C83.4521 32.8837 81.3029 31.2957 81.1641 28.7856L83.363 28.7857Z" fill="white"/>
<path d="M96.8127 20.1396V22.5341H98.8027V24.1789H96.8127V29.7569C96.8127 30.6235 97.2111 31.0273 98.0859 31.0273C98.3222 31.0233 98.5581 31.0073 98.7926 30.9792V32.6141C98.3992 32.6852 97.9995 32.7174 97.5994 32.7102C95.4807 32.7102 94.6544 31.9407 94.6544 29.9784V24.1789H93.1328V22.5341H94.6544V20.1396H96.8127Z" fill="white"/>
<path d="M99.9556 27.5937C99.9556 24.4102 101.895 22.4097 104.919 22.4097C107.953 22.4097 109.883 24.4101 109.883 27.5937C109.883 30.786 107.963 32.7778 104.919 32.7778C101.876 32.7778 99.9556 30.786 99.9556 27.5937ZM107.695 27.5937C107.695 25.4099 106.659 24.121 104.919 24.121C103.178 24.121 102.144 25.4197 102.144 27.5937C102.144 29.7863 103.178 31.0654 104.919 31.0654C106.659 31.0654 107.694 29.7863 107.694 27.5937H107.695Z" fill="white"/>
<path d="M111.653 22.5344H113.702V24.2566H113.752C113.89 23.7187 114.216 23.2434 114.675 22.9105C115.133 22.5775 115.696 22.4074 116.269 22.4285C116.517 22.4277 116.763 22.4537 117.005 22.506V24.4487C116.692 24.3563 116.366 24.3139 116.04 24.3232C115.728 24.3109 115.417 24.3641 115.128 24.4791C114.839 24.5941 114.579 24.7681 114.367 24.9893C114.154 25.2105 113.993 25.4735 113.896 25.7603C113.798 26.0472 113.766 26.351 113.801 26.6511V32.6526H111.653L111.653 22.5344Z" fill="white"/>
<path d="M126.909 29.6805C126.62 31.5173 124.77 32.7778 122.403 32.7778C119.359 32.7778 117.469 30.8057 117.469 27.6418C117.469 24.468 119.369 22.4097 122.313 22.4097C125.208 22.4097 127.029 24.3327 127.029 27.4006V28.1121H119.638V28.2376C119.604 28.61 119.652 28.9852 119.779 29.3381C119.906 29.6911 120.11 30.0138 120.376 30.2849C120.643 30.556 120.965 30.7692 121.323 30.9103C121.681 31.0515 122.066 31.1174 122.453 31.1036C122.96 31.1496 123.47 31.0359 123.905 30.7795C124.341 30.5231 124.679 30.1376 124.87 29.6805L126.909 29.6805ZM119.648 26.6606H124.88C124.899 26.3258 124.847 25.9907 124.726 25.6764C124.605 25.3622 124.418 25.0755 124.177 24.8343C123.936 24.5932 123.646 24.4028 123.325 24.2752C123.004 24.1475 122.66 24.0854 122.313 24.0926C121.963 24.0906 121.616 24.1555 121.293 24.2838C120.969 24.412 120.675 24.601 120.427 24.8397C120.179 25.0785 119.983 25.3623 119.849 25.6748C119.715 25.9874 119.647 26.3224 119.648 26.6606V26.6606Z" fill="white"/>
<path d="M44.1968 8.32886C44.6471 8.29761 45.0991 8.36339 45.5199 8.52145C45.9408 8.67951 46.3201 8.92592 46.6306 9.24289C46.941 9.55986 47.1749 9.9395 47.3152 10.3544C47.4555 10.7693 47.4989 11.2092 47.4421 11.6423C47.4421 13.7727 46.2512 14.9973 44.1968 14.9973H41.7056V8.32886H44.1968ZM42.7768 14.0542H44.0771C44.3989 14.0728 44.721 14.0218 45.0198 13.9049C45.3187 13.788 45.5868 13.6081 45.8047 13.3783C46.0225 13.1486 46.1847 12.8748 46.2793 12.5768C46.3739 12.2789 46.3986 11.9642 46.3517 11.6559C46.3952 11.3487 46.368 11.0361 46.2719 10.7403C46.1759 10.4445 46.0133 10.1729 45.7959 9.94502C45.5786 9.71711 45.3117 9.53852 45.0146 9.42202C44.7174 9.30553 44.3973 9.25403 44.0771 9.27121H42.7768V14.0542Z" fill="white"/>
<path d="M48.6522 12.4783C48.6195 12.1476 48.6586 11.8139 48.7671 11.4987C48.8756 11.1834 49.051 10.8936 49.2821 10.6477C49.5132 10.4019 49.7949 10.2055 50.1091 10.071C50.4234 9.93662 50.7632 9.86719 51.1068 9.86719C51.4504 9.86719 51.7902 9.93662 52.1044 10.071C52.4187 10.2055 52.7004 10.4019 52.9315 10.6477C53.1626 10.8936 53.338 11.1834 53.4465 11.4987C53.5549 11.8139 53.5941 12.1476 53.5613 12.4783C53.5947 12.8093 53.556 13.1435 53.4478 13.4592C53.3397 13.7749 53.1644 14.0653 52.9332 14.3116C52.702 14.558 52.4201 14.7548 52.1056 14.8895C51.791 15.0242 51.4508 15.0938 51.1068 15.0938C50.7628 15.0938 50.4226 15.0242 50.108 14.8895C49.7935 14.7548 49.5116 14.558 49.2804 14.3116C49.0492 14.0653 48.8739 13.7749 48.7657 13.4592C48.6576 13.1435 48.6189 12.8093 48.6522 12.4783ZM52.5048 12.4783C52.5048 11.3874 51.998 10.7495 51.1085 10.7495C50.2156 10.7495 49.7133 11.3874 49.7133 12.4783C49.7133 13.5779 50.2156 14.2108 51.1085 14.2108C51.998 14.2108 52.5048 13.5735 52.5048 12.4783H52.5048Z" fill="white"/>
<path d="M60.0867 14.9967H59.0211L57.9453 11.2904H57.8641L56.7929 14.9967H55.7374L54.3027 9.96436H55.3446L56.277 13.8043H56.3538L57.4239 9.96436H58.4093L59.4794 13.8043H59.5606L60.4885 9.96436H61.5157L60.0867 14.9967Z" fill="white"/>
<path d="M62.7222 9.9644H63.711V10.7638H63.7878C63.918 10.4767 64.1376 10.236 64.416 10.0753C64.6944 9.91458 65.0178 9.84186 65.341 9.86726C65.5942 9.84885 65.8485 9.88577 66.085 9.97528C66.3215 10.0648 66.5341 10.2046 66.7071 10.3844C66.8802 10.5641 67.0091 10.7792 67.0845 11.0137C67.1599 11.2482 67.1797 11.4961 67.1425 11.739V14.9967H66.1153V11.9884C66.1153 11.1797 65.7519 10.7775 64.9922 10.7775C64.8202 10.7697 64.6486 10.798 64.489 10.8604C64.3294 10.9228 64.1857 11.0178 64.0676 11.139C63.9496 11.2601 63.86 11.4045 63.8051 11.5622C63.7502 11.7199 63.7312 11.8873 63.7494 12.0528V14.9968H62.7222L62.7222 9.9644Z" fill="white"/>
<path d="M68.7798 8H69.807V14.9969H68.7798V8Z" fill="white"/>
<path d="M71.2347 12.4784C71.202 12.1476 71.2412 11.8139 71.3497 11.4987C71.4582 11.1834 71.6336 10.8936 71.8647 10.6477C72.0959 10.4019 72.3776 10.2055 72.6919 10.071C73.0061 9.93662 73.3459 9.86719 73.6896 9.86719C74.0332 9.86719 74.373 9.93662 74.6873 10.071C75.0015 10.2055 75.2832 10.4019 75.5144 10.6477C75.7455 10.8936 75.9209 11.1834 76.0294 11.4987C76.1379 11.8139 76.1771 12.1476 76.1444 12.4784C76.1777 12.8094 76.139 13.1436 76.0308 13.4593C75.9226 13.7751 75.7472 14.0654 75.516 14.3117C75.2848 14.5581 75.0029 14.7549 74.6884 14.8896C74.3738 15.0243 74.0336 15.0939 73.6896 15.0939C73.3455 15.0939 73.0053 15.0243 72.6908 14.8896C72.3762 14.7549 72.0943 14.5581 71.8631 14.3117C71.6319 14.0654 71.4566 13.7751 71.3483 13.4593C71.2401 13.1436 71.2014 12.8094 71.2347 12.4784ZM75.0873 12.4784C75.0873 11.3875 74.5804 10.7496 73.691 10.7496C72.7981 10.7496 72.2958 11.3875 72.2958 12.4784C72.2958 13.5779 72.7981 14.2109 73.691 14.2109C74.5805 14.2109 75.0873 13.5736 75.0873 12.4784H75.0873Z" fill="white"/>
<path d="M77.2256 13.5735C77.2256 12.6677 77.9232 12.1454 79.1615 12.0712L80.5713 11.9927V11.5583C80.5713 11.0268 80.2078 10.7266 79.5057 10.7266C78.9323 10.7266 78.535 10.9302 78.421 11.286H77.4265C77.5315 10.4216 78.3724 9.86719 79.5532 9.86719C80.858 9.86719 81.594 10.4953 81.594 11.5583V14.9967H80.6052V14.2895H80.5239C80.3589 14.5432 80.1273 14.75 79.8526 14.8888C79.578 15.0276 79.2701 15.0934 78.9605 15.0796C78.742 15.1016 78.5212 15.079 78.3123 15.0134C78.1033 14.9478 77.9109 14.8406 77.7475 14.6987C77.584 14.5568 77.4531 14.3834 77.3632 14.1896C77.2733 13.9958 77.2264 13.7859 77.2256 13.5735ZM80.5713 13.1435V12.7228L79.3003 12.8014C78.5835 12.8477 78.2584 13.0835 78.2584 13.5271C78.2584 13.98 78.6648 14.2436 79.2236 14.2436C79.3873 14.2596 79.5527 14.2437 79.7099 14.1966C79.8671 14.1496 80.0129 14.0724 80.1387 13.9698C80.2644 13.8672 80.3675 13.7411 80.4418 13.5992C80.5162 13.4572 80.5602 13.3023 80.5713 13.1435Z" fill="white"/>
<path d="M82.9443 12.4785C82.9443 10.8884 83.7898 9.88102 85.1048 9.88102C85.4301 9.86652 85.753 9.94185 86.0356 10.0982C86.3182 10.2545 86.549 10.4854 86.701 10.7639H86.7777V8H87.8049V14.9969H86.8206V14.2018H86.7393C86.5757 14.4784 86.3368 14.7064 86.0487 14.8612C85.7606 15.0159 85.4342 15.0915 85.1049 15.0798C83.7808 15.0798 82.9443 14.0725 82.9443 12.4785ZM84.0054 12.4785C84.0054 13.5459 84.5258 14.1882 85.3961 14.1882C86.2619 14.1882 86.7969 13.5366 86.7969 12.4829C86.7969 11.4341 86.2563 10.7732 85.3961 10.7732C84.5314 10.7732 84.0054 11.4199 84.0054 12.4785H84.0054Z" fill="white"/>
<path d="M92.0546 12.4783C92.0219 12.1476 92.061 11.8139 92.1695 11.4987C92.2779 11.1834 92.4533 10.8936 92.6844 10.6477C92.9156 10.4019 93.1973 10.2055 93.5115 10.071C93.8257 9.93662 94.1655 9.86719 94.5091 9.86719C94.8527 9.86719 95.1926 9.93662 95.5068 10.071C95.821 10.2055 96.1027 10.4019 96.3338 10.6477C96.5649 10.8936 96.7403 11.1834 96.8488 11.4987C96.9573 11.8139 96.9964 12.1476 96.9637 12.4783C96.997 12.8093 96.9584 13.1435 96.8502 13.4592C96.742 13.7749 96.5667 14.0653 96.3355 14.3116C96.1044 14.558 95.8224 14.7548 95.5079 14.8895C95.1934 15.0242 94.8532 15.0938 94.5091 15.0938C94.1651 15.0938 93.8249 15.0242 93.5104 14.8895C93.1958 14.7548 92.9139 14.558 92.6827 14.3116C92.4516 14.0653 92.2763 13.7749 92.1681 13.4592C92.0599 13.1435 92.0212 12.8093 92.0546 12.4783ZM95.9071 12.4783C95.9071 11.3874 95.4003 10.7495 94.5108 10.7495C93.618 10.7495 93.1157 11.3874 93.1157 12.4783C93.1157 13.5779 93.618 14.2108 94.5108 14.2108C95.4003 14.2108 95.9071 13.5735 95.9071 12.4783Z" fill="white"/>
<path d="M98.3423 9.9644H99.3311V10.7638H99.4079C99.5381 10.4767 99.7577 10.236 100.036 10.0753C100.315 9.91458 100.638 9.84186 100.961 9.86726C101.214 9.84885 101.469 9.88577 101.705 9.97528C101.942 10.0648 102.154 10.2046 102.327 10.3844C102.5 10.5641 102.629 10.7792 102.705 11.0137C102.78 11.2482 102.8 11.4961 102.763 11.739V14.9967H101.735V11.9884C101.735 11.1797 101.372 10.7775 100.612 10.7775C100.44 10.7697 100.269 10.798 100.109 10.8604C99.9495 10.9228 99.8058 11.0178 99.6878 11.139C99.5697 11.2601 99.4802 11.4045 99.4252 11.5622C99.3703 11.7199 99.3513 11.8873 99.3695 12.0528V14.9968H98.3423V9.9644Z" fill="white"/>
<path d="M108.566 8.71143V9.98725H109.694V10.8238H108.566V13.4115C108.566 13.9386 108.791 14.1694 109.302 14.1694C109.433 14.169 109.564 14.1614 109.694 14.1465V14.9738C109.509 15.0057 109.322 15.0227 109.135 15.0245C107.993 15.0245 107.538 14.636 107.538 13.6658V10.8238H106.711V9.98721H107.538V8.71143H108.566Z" fill="white"/>
<path d="M111.098 8H112.116V10.7732H112.197C112.334 10.4834 112.559 10.2413 112.843 10.08C113.127 9.9187 113.456 9.84597 113.784 9.87173C114.036 9.85847 114.288 9.89914 114.522 9.99083C114.756 10.0825 114.966 10.223 115.137 10.4022C115.308 10.5813 115.436 10.7949 115.512 11.0275C115.588 11.2601 115.61 11.506 115.577 11.7478V14.9969H114.548V11.9928C114.548 11.189 114.161 10.7819 113.435 10.7819C113.259 10.7679 113.081 10.7914 112.915 10.8507C112.749 10.91 112.598 11.0037 112.473 11.1252C112.348 11.2467 112.253 11.3931 112.192 11.5542C112.132 11.7153 112.109 11.8872 112.125 12.0578V14.9968H111.098L111.098 8Z" fill="white"/>
<path d="M121.566 13.638C121.427 14.0979 121.124 14.4958 120.712 14.7619C120.3 15.0281 119.804 15.1456 119.311 15.0939C118.968 15.1026 118.627 15.0391 118.312 14.9078C117.997 14.7765 117.716 14.5804 117.487 14.3333C117.258 14.0861 117.088 13.7938 116.987 13.4766C116.887 13.1594 116.86 12.825 116.906 12.4964C116.861 12.1669 116.889 11.8317 116.989 11.5135C117.089 11.1954 117.258 10.9017 117.486 10.6524C117.713 10.4031 117.994 10.204 118.308 10.0685C118.622 9.93307 118.962 9.86444 119.306 9.86727C120.755 9.86727 121.628 10.8239 121.628 12.4042V12.7507H117.953V12.8064C117.937 12.991 117.961 13.1769 118.023 13.3521C118.086 13.5273 118.186 13.6879 118.316 13.8236C118.447 13.9594 118.605 14.0672 118.781 14.1403C118.957 14.2134 119.147 14.2501 119.339 14.248C119.585 14.2766 119.834 14.2338 120.054 14.1252C120.275 14.0165 120.457 13.8469 120.577 13.638L121.566 13.638ZM117.953 12.0162H120.582C120.595 11.8473 120.571 11.6777 120.512 11.5182C120.453 11.3587 120.36 11.2128 120.24 11.0901C120.119 10.9673 119.973 10.8703 119.811 10.8053C119.65 10.7403 119.476 10.7087 119.301 10.7126C119.123 10.7104 118.947 10.7426 118.782 10.8074C118.618 10.8722 118.468 10.9681 118.342 11.0896C118.217 11.2111 118.118 11.3557 118.051 11.5148C117.984 11.674 117.951 11.8444 117.953 12.0162H117.953Z" fill="white"/>
</svg>
